<svg width="25" height="25" viewBox="0 0 25 25" fill="none" xmlns="http://www.w3.org/2000/svg">
<path d="M7.99969 11.9978C7.99969 9.72598 7.99969 8.59006 8.70264 7.88429C9.40558 7.17853 10.537 7.17853 12.7997 7.17853H15.1997C17.4624 7.17853 18.5938 7.17853 19.2968 7.88429C19.9997 8.59006 19.9997 9.72598 19.9997 11.9978V16.0139C19.9997 18.2857 19.9997 19.4216 19.2968 20.1274C18.5938 20.8331 17.4624 20.8331 15.1997 20.8331H12.7997C10.537 20.8331 9.40558 20.8331 8.70264 20.1274C7.99969 19.4216 7.99969 18.2857 7.99969 16.0139V11.9978Z" fill="#1D1B1C"/>
<path opacity="0.5" d="M5.97631 5.143C5 6.11931 5 7.69066 5 10.8334V12.5C5 15.6427 5 17.2141 5.97631 18.1904C6.49094 18.705 7.17091 18.9484 8.15921 19.0634C7.99968 18.3628 7.99967 17.3997 7.99967 16.0139V11.9978C7.99967 9.72602 7.99967 8.5901 8.70262 7.88434C9.40556 7.17857 10.5369 7.17857 12.7997 7.17857H15.1997C16.5762 7.17857 17.534 7.17857 18.2314 7.33747C18.1169 6.3429 17.8737 5.65964 17.357 5.143C16.3807 4.16669 14.8094 4.16669 11.6667 4.16669C8.52397 4.16669 6.95262 4.16669 5.97631 5.143Z" fill="#1D1B1C"/>
</svg>
